<svg xmlns="http://www.w3.org/2000/svg" xmlns:xlink="http://www.w3.org/1999/xlink" version="1.1" x="0px" y="0px" viewBox="0 0 48 48" style="enable-background:new 0 0 48 48;" xml:space="preserve">
  <g>
    <path fill="#fff" d="M41.2,20.7c0.6-7.6-6.5-13.5-13.9-11.6C23.6,2,13.7,1.1,8.8,7.5c-1.9,2.5-2.7,5.6-2.1,8.7C2.6,18,0,22,0,26.4 c0,6.1,5,11.1,11.1,11.1c0,0,0,0,0,0l1.6,0v4.2c0,1.7,1.4,3.1,3.1,3.1h14.5c1.7,0,3.1-1.4,3.1-3.1v-4l6,0c4.8,0,8.6-3.9,8.6-8.6 C48,25,45.2,21.5,41.2,20.7z M31.4,41.7c0,0.6-0.5,1.1-1.1,1.1H15.8c-0.6,0-1.1-0.5-1.1-1.1V28.9h3.6c1.7,0,3.1-1.4,3.1-3.1v-3.6 h8.9c0.6,0,1.1,0.5,1.1,1.1V41.7z M16.1,26.9l3.3-3.3v2.2c0,0.6-0.5,1.1-1.1,1.1H16.1z M39.4,35.7l-6,0V23.3c0-1.7-1.4-3.1-3.1-3.1 h-9.9c-0.2,0-0.5,0.1-0.7,0.3L13,27.2c0,0,0,0,0,0c-0.2,0.2-0.3,0.5-0.3,0.7v7.7l-1.6,0c-5,0-9.1-4.1-9.1-9.1 c0-3.9,2.5-7.3,6.1-8.6c0.5-0.2,0.8-0.7,0.6-1.2C8,13.9,8.6,11,10.3,8.7c4.3-5.5,12.8-4.4,15.6,1.9c0.2,0.5,0.8,0.7,1.2,0.5 c6.5-2.3,13.1,3.2,12,10.1c0,0.3,0,0.6,0.2,0.8s0.4,0.4,0.7,0.4c3.4,0.3,6,3.2,6,6.6C46,32.8,43,35.7,39.4,35.7z"/>
    <path fill="#fff" d="M27.9,32.4h-9.8c-0.6,0-1,0.4-1,1s0.4,1,1,1h9.8c0.6,0,1-0.4,1-1S28.5,32.4,27.9,32.4z"/>
    <path fill="#fff" d="M27.9,37.1h-9.8c-0.6,0-1,0.4-1,1s0.4,1,1,1h9.8c0.6,0,1-0.4,1-1S28.5,37.1,27.9,37.1z"/>
  </g>
</svg>